<?xml version="1.0" encoding="UTF-8"?>
<svg width="133px" height="47px" viewBox="0 0 133 47" version="1.1" xmlns="http://www.w3.org/2000/svg" xmlns:xlink="http://www.w3.org/1999/xlink">
    <!-- Generator: Sketch 45.2 (43514) - http://www.bohemiancoding.com/sketch -->
    <title>Page 1</title>
    <desc>Created with Sketch.</desc>
    <defs></defs>
    <g id="Symbols" stroke="none" stroke-width="1" fill="none" fill-rule="evenodd">
        <g id="шапка22" transform="translate(-50.000000, -38.000000)">
            <g id="Page-1">
                <g transform="translate(50.000000, 38.000000)">
                    <path d="M30.5294471,32.5780507 C30.124399,32.5780507 29.7864583,32.7225864 29.5785256,32.9850059 C29.046274,33.6566359 29.2854567,34.8389588 30.1007612,35.5679931 C30.4565304,35.8859717 30.9691506,36.0762259 31.4723558,36.0762259 C31.9845753,36.0762259 32.411859,35.8794112 32.6754808,35.5228897 C33.1498397,34.8723763 32.8770032,33.9500127 31.9805689,33.174235 C31.536859,32.7900364 31.0216346,32.5780507 30.5294471,32.5780507 M34.9975962,29.2030896 C34.6011619,29.0845908 34.3046875,29.1729524 34.1586538,29.4464427 C33.9372997,29.8603685 34.1007612,30.6791994 34.5476763,31.3926525 C35.0002003,32.1155363 35.3842147,32.4821035 35.6899038,32.4821035 C35.7952724,32.4821035 35.8894231,32.4365901 35.9627404,32.3515088 C36.1328125,32.1516189 36.1889022,31.7331828 36.1173878,31.2040385 C36.0454728,30.6630032 35.7211538,29.5503855 34.9975962,29.2030896 M43.8112981,45.7113275 C44.2219551,46.2318612 43.5971554,46.7605956 43.1316106,46.3382641 C38.4811699,42.1227406 34.5703125,40.9287318 30.7019231,40.7632845 C28.6490385,40.6753329 26.6083734,40.8768629 24.4751603,41.0697823 C24.0492788,41.1081201 23.619391,41.146458 23.1846955,41.1817206 C22.9951923,41.1975068 22.8040865,41.2120629 22.6131811,41.2264139 C21.8607772,41.3094451 21.098758,41.3535234 20.3257212,41.3535234 C16.6858974,41.3535234 13.2514022,40.4405905 10.1163862,38.6395315 C6.97015224,36.8333472 4.46935096,34.3102245 2.68469551,31.1400737 C0.902844551,27.9773035 0,24.4824085 0,20.752156 C0,17.0255939 0.902043269,13.5157328 2.68108974,10.3201601 C4.46374199,7.11987208 6.93569712,4.57173755 10.0282452,2.74751186 C13.1209936,0.924516266 16.4945913,0.000102507624 20.0558894,0.000102507624 C23.7750401,0.000102507624 27.2514022,0.913445442 30.3880208,2.71470942 C33.5334535,4.52109878 36.0416667,7.05180701 37.8433494,10.2371289 C39.6418269,13.4187606 40.5532853,16.9230862 40.5532853,20.6523136 C40.5532853,22.0919307 40.416867,23.4981303 40.1492388,24.865172 C40.1147837,25.0636267 40.0651042,25.3041096 39.994992,25.5843655 C39.942508,25.8086522 39.8868189,26.0321188 39.8271234,26.2543553 L39.8104968,26.2445146 C39.4499199,27.4251974 38.7794471,29.0960717 37.5308494,31.2413512 C37.3966346,31.467073 37.3221154,31.2952702 37.3046875,31.1691859 C36.8677885,28.0135912 35.5166266,25.6173729 33.135016,24.0699178 C33.0957532,24.0444959 33.0556891,24.0200991 33.0160256,23.9954973 C32.6258013,23.749684 32.2091346,23.5262174 31.7644231,23.3253024 C31.1967147,23.0692384 30.5847356,22.848847 29.9260817,22.6667935 C29.5222356,22.5556752 28.6219952,22.6032387 28.9485176,22.2719341 C29.0833333,22.1353939 31.0332532,22.1042316 33.2746394,22.2495874 C33.318109,22.2522526 33.3617788,22.2549178 33.4058494,22.2579931 C33.4473157,21.7772323 33.4685497,21.2839656 33.4685497,20.777988 C33.4685497,16.8408751 32.1951122,13.6307464 29.5755208,10.9647281 C26.9535256,8.29706964 23.8880208,6.99973314 20.203125,6.99973314 C16.4300881,6.99973314 13.3703926,8.29850474 10.8501603,10.9702635 C8.31630609,13.6553482 7.08473558,16.838825 7.08473558,20.7017223 C7.08473558,24.556829 8.35116186,27.7265698 10.9561298,30.3921781 C13.5612981,33.0581964 16.5861378,34.3545078 20.203125,34.3545078 C20.3768029,34.3545078 20.5480769,34.3489724 20.719351,34.343642 C20.7155449,34.2987436 20.7123397,34.2540503 20.7089343,34.209767 C20.5010016,31.4916749 20.4569311,29.2336369 21.0028045,30.1447247 C21.1955128,30.4668036 21.3872196,30.7710463 21.578726,31.063808 C22.291867,32.1551042 22.9977965,33.053481 23.7005208,33.7980964 C23.7357772,33.8354092 23.7710337,33.8716969 23.806891,33.9081896 C26.3782051,36.5795383 28.9092548,37.2368172 31.6001603,37.9125474 C31.6576522,37.9273085 31.7147436,37.9416596 31.7718349,37.9558057 C32.2125401,38.0669239 32.6572516,38.1794773 33.1075721,38.3024864 C36.3058894,39.1760564 39.7690304,40.5843062 43.8112981,45.7113275" id="Fill-1" fill="#FF8C00"></path>
                    <polygon id="Fill-15" fill="#0023A0" points="56.3441506 12.804069 60.3764022 12.804069 60.3764022 19.312278 62.0352564 19.312278 65.4453125 12.804069 69.7770433 12.804069 65.3303285 20.8687538 65.3303285 20.9157023 70.030649 29.664318 65.5146234 29.664318 62.0352564 22.8260344 60.3764022 22.8260344 60.3764022 29.664318 56.3441506 29.664318"></polygon>
                    <path d="M80.0320513,22.8260344 L79.1105769,19.5482506 C78.8108974,18.4870917 78.4423077,16.6476948 78.4423077,16.6476948 L78.396234,16.6476948 C78.396234,16.6476948 78.0274439,18.4870917 77.7279647,19.5482506 L76.7834535,22.8260344 L80.0320513,22.8260344 Z M76.2994792,12.804069 L80.5390625,12.804069 L86.1380208,29.664318 L81.9905849,29.664318 L80.9767628,26.1271899 L75.838742,26.1271899 L74.8479567,29.664318 L70.7005208,29.664318 L76.2994792,12.804069 L76.2994792,12.804069 Z" id="Fill-16" fill="#0023A0"></path>
                    <path d="M94.5691106,12.5209429 C96.7810497,12.5209429 99.1312099,13.275604 100.74399,14.902605 L98.8776042,18.0153516 C97.8177083,17.0720764 96.2279647,16.2940435 94.7534054,16.2940435 C91.4585337,16.2940435 90.0991587,18.6757057 90.0991587,21.1045213 C90.0991587,23.6040673 91.5737179,26.1745485 94.7534054,26.1745485 C96.3892228,26.1745485 98.0022035,25.2548501 99.1312099,24.0993841 L101.204928,27.1176186 C99.7532051,28.6505176 97.5873397,29.9474441 94.5691106,29.9474441 C89.2696314,29.9474441 85.9286859,26.1979202 85.9286859,21.1988284 C85.9286859,16.2940435 89.4769631,12.5209429 94.5691106,12.5209429" id="Fill-17" fill="#0023A0"></path>
                    <path d="M110.628606,12.5209429 C112.840545,12.5209429 115.190705,13.275604 116.803686,14.902605 L114.9373,18.0153516 C113.877404,17.0720764 112.28746,16.2940435 110.812901,16.2940435 C107.518029,16.2940435 106.158654,18.6757057 106.158654,21.1045213 C106.158654,23.6040673 107.633213,26.1745485 110.812901,26.1745485 C112.448918,26.1745485 114.061699,25.2548501 115.190705,24.0993841 L117.264423,27.1176186 C115.812901,28.6505176 113.647035,29.9474441 110.628606,29.9474441 C105.329127,29.9474441 101.988181,26.1979202 101.988181,21.1988284 C101.988181,16.2940435 105.536458,12.5209429 110.628606,12.5209429" id="Fill-18" fill="#0023A0"></path>
                    <path d="M126.849359,22.8260344 L125.927684,19.5482506 C125.628205,18.4870917 125.259415,16.6476948 125.259415,16.6476948 L125.213341,16.6476948 C125.213341,16.6476948 124.844752,18.4870917 124.545272,19.5482506 L123.600561,22.8260344 L126.849359,22.8260344 Z M123.116587,12.804069 L127.35637,12.804069 L132.955128,29.664318 L128.807893,29.664318 L127.794071,26.1271899 L122.655849,26.1271899 L121.665064,29.664318 L117.517628,29.664318 L123.116587,12.804069 L123.116587,12.804069 Z" id="Fill-19" fill="#0023A0"></path>
                </g>
            </g>
        </g>
    </g>
</svg>