<svg xmlns="http://www.w3.org/2000/svg" width="20" height="20" viewBox="0 0 20 20"><g fill="none" fill-rule="evenodd"><path fill="#00995D" fill-rule="nonzero" d="M20 9.756c0 5.388-4.477 9.756-10 9.756S0 15.144 0 9.756 4.477 0 10 0s10 4.368 10 9.756zm-16.888 0c0 3.817 3.124 6.91 6.979 6.91 3.854 0 6.979-3.093 6.979-6.91s-3.125-6.91-6.98-6.91c-3.854 0-6.978 3.093-6.978 6.91z"/><ellipse cx="12.75" cy="12.927" fill="#00995D" rx="1" ry="1"/><ellipse cx="10.75" cy="12.927" fill="#00995D" rx="1" ry="1"/><ellipse cx="8.75" cy="7.561" fill="#00995D" rx="1" ry="1"/><ellipse cx="14.75" cy="12.927" fill="#00995D" rx="1" ry="1"/><path stroke="#00995D" stroke-width="1.127" d="M10.75 2.21v7.074c0 .61-.244.736-.762.736-.517 0-.988 0-.988.971v6.586"/></g></svg>