<svg xmlns="http://www.w3.org/2000/svg" width="20" height="20" viewBox="0 0 20 20"><g fill="none" fill-rule="evenodd"><circle cx="10" cy="10" r="10" fill="#DC220A"/><path fill="#FFF" d="M4.294 8.282L5.288 8.282 6.307 10.36 7.31 8.282 8.304 8.282 8.598 11.994 7.448 11.994 7.302 10.142 6.601 11.711 6.005 11.703 5.166 10.142 5.019 11.994 4 11.994z"/><path fill="#FFF" d="M10.088 11.994L10.088 9.139 8.925 9.139 8.925 8.282 12.388 8.282 12.388 9.139 11.25 9.139 11.25 11.994 10.088 11.994"/><path fill="#FFF" d="M15.61 8.41c-.235-.125-.544-.128-.867-.128-1.173 0-1.923.128-1.923.928v1.863c0 .933.752.92 1.923.92.3.008.707.004.868-.12v-.8c-.182.097-.428.106-.868.106-.468 0-.867-.106-.867-.57V9.58c0-.37.363-.505.867-.505.412 0 .587-.013.868.136v-.8"/></g></svg>