<svg xmlns="http://www.w3.org/2000/svg" xmlns:xlink="http://www.w3.org/1999/xlink" width="20" height="20" viewBox="0 0 20 20"><defs><path id="a" d="M20 10c0 5.522-4.478 10-10 10S0 15.522 0 10 4.478 0 10 0s10 4.478 10 10z"/></defs><g fill="none" fill-rule="evenodd"><mask id="b" fill="#fff"><use xlink:href="#a"/></mask><use fill="#F7CE49" xlink:href="#a"/><path fill="#1A1919" d="M9.715 2.916c4.187.006 5.272.125 7.785.334C15.633 1.257 12.909 0 9.875 0S4.117 1.257 2.25 3.25c2.41-.193 3.279-.34 7.465-.334zM17.5 16.75c-4.72.339-10.328.363-15.25 0C4.094 18.74 6.826 20 9.875 20c3.049 0 5.78-1.26 7.625-3.25m2.168-9.406a9.952 9.952 0 0 1 .08 4.78c-6.689.192-12.946.143-19.497 0a9.962 9.962 0 0 1 .08-4.78c6.614-.116 12.73-.135 19.337 0z" mask="url(#b)"/></g></svg>