<?xml version="1.0" encoding="UTF-8"?>
<svg width="160px" height="15px" viewBox="0 0 160 15" version="1.1" xmlns="http://www.w3.org/2000/svg" xmlns:xlink="http://www.w3.org/1999/xlink">
    <!-- Generator: Sketch 52.5 (67469) - http://www.bohemiancoding.com/sketch -->
    <title>Group 3</title>
    <desc>Created with Sketch.</desc>
    <defs>
        <polygon id="path-1" points="13.4971216 0.223004444 0.0799637836 0.223004444 0.0799637836 13.9375919 13.4971216 13.9375919"></polygon>
        <polygon id="path-3" points="13.4176132 0.223004444 0.000455374622 0.223004444 0.000455374622 13.9375919 13.4176132 13.9375919"></polygon>
        <linearGradient x1="0%" y1="50.0522466%" x2="100.140585%" y2="50.0522466%" id="linearGradient-5">
            <stop stop-color="#5BAAE3" offset="0%"></stop>
            <stop stop-color="#58A1DC" offset="33%"></stop>
            <stop stop-color="#4F89C8" offset="87%"></stop>
            <stop stop-color="#4C82C3" offset="100%"></stop>
        </linearGradient>
        <linearGradient x1="0%" y1="49.9090374%" x2="100.088002%" y2="49.9090374%" id="linearGradient-6">
            <stop stop-color="#363C61" offset="0%"></stop>
            <stop stop-color="#4D64A9" offset="100%"></stop>
        </linearGradient>
        <polygon id="path-7" points="1.15583075e-05 5.77996716e-06 37.327612 5.77996716e-06 37.327612 11.6990003 1.15583075e-05 11.6990003"></polygon>
    </defs>
    <g id="Demo-Pages-28.09.2017" stroke="none" stroke-width="1" fill="none" fill-rule="evenodd">
        <g id="3.1.-Pay_CheckOut_Modal" transform="translate(-337.000000, -564.000000)">
            <g id="btn" transform="translate(317.000000, 504.000000)">
                <g id="Group-3" transform="translate(20.000000, 60.000000)">
                    <g id="иконки" transform="translate(43.733333, 0.000000)">
                        <g id="MC">
                            <g id="2-copy-4">
                                <g id="Page-1">
                                    <g id="Group">
                                        <g id="Group-3" transform="translate(8.196743, 0.706459)">
                                            <g id="Fill-1-Clipped">
                                                <g>
                                                    <mask id="mask-2" fill="white">
                                                        <use xlink:href="#path-1"></use>
                                                    </mask>
                                                    <g id="path-3"></g>
                                                    <path d="M13.4971216,7.08020527 C13.4971216,10.8675641 10.4934706,13.9375919 6.78854271,13.9375919 C3.08361479,13.9375919 0.0799637836,10.8675641 0.0799637836,7.08020527 C0.0799637836,3.29284646 3.08361479,0.222818607 6.78854271,0.222818607 C10.4934706,0.222818607 13.4971216,3.29284646 13.4971216,7.08020527 Z" id="Fill-1" fill="#FC9F3A" fill-rule="nonzero" mask="url(#mask-2)"></path>
                                                </g>
                                            </g>
                                        </g>
                                        <g id="Group-6" transform="translate(0.000000, 0.706459)">
                                            <g id="Fill-4-Clipped">
                                                <g>
                                                    <mask id="mask-4" fill="white">
                                                        <use xlink:href="#path-3"></use>
                                                    </mask>
                                                    <g id="path-5"></g>
                                                    <path d="M13.4176132,7.08020527 C13.4176132,10.8675641 10.4139622,13.9375919 6.7090343,13.9375919 C3.00410638,13.9375919 0.000455374622,10.8675641 0.000455374622,7.08020527 C0.000455374622,3.29284646 3.00410638,0.222818607 6.7090343,0.222818607 C10.4139622,0.222818607 13.4176132,3.29284646 13.4176132,7.08020527 Z" id="Fill-4" fill="#F14840" fill-rule="nonzero" mask="url(#mask-4)"></path>
                                                </g>
                                            </g>
                                        </g>
                                        <path d="M10.8469324,2.3883776 C9.28135446,3.64370679 8.27679805,5.59499567 8.27679805,7.78601434 C8.27679805,9.97796219 9.28135446,11.9301803 10.8469324,13.1855095 C12.4125104,11.9301803 13.4170668,9.97796219 13.4170668,7.78601434 C13.4170668,5.59499567 12.4125104,3.64370679 10.8469324,2.3883776" id="Fill-7" fill="#F46B3E" fill-rule="nonzero"></path>
                                    </g>
                                </g>
                            </g>
                        </g>
                    </g>
                    <g id="иконки" transform="translate(78.933333, 2.133333)" fill-rule="nonzero">
                        <g id="MIR_EN">
                            <g id="2-copy-9">
                                <g id="Page-1">
                                    <g id="Layer_2">
                                        <g id="Layer_2-2">
                                            <path d="M6.76653676,6.30601482 L6.52981963,6.30601482 L5.14524776,1.40082963 C4.91020844,0.569978743 4.1650491,-0.00144377886 3.31850614,-5.52201658e-15 L0,-2.72966403e-06 L0,10.6727704 L3.3229725,10.6727704 L3.3229725,4.36675556 L3.57308871,4.36675556 L5.4712921,10.6727704 L7.84739609,10.6727704 L9.73666675,4.36675556 L9.97338388,4.36675556 L9.97338388,10.6727704 L13.2963563,10.6727704 L13.2963563,-2.72966403e-06 L9.97785026,-5.73731753e-15 C9.13130729,-0.00144377886 8.38614794,0.569978743 8.15110863,1.40082963 L6.76653676,6.30601482 Z" id="Shape" fill="#3CA85B"></path>
                                            <path d="M26.3515292,0 L18.9954329,0 C19.4529793,2.52479703 21.6050166,4.35918607 24.1183489,4.36675556 L29.8352908,4.36675556 C30.0447248,3.29778245 29.7755353,2.18912565 29.1013641,1.34407906 C28.427193,0.49903246 27.418609,0.00605136038 26.3515292,4.05272524e-16 Z" id="Shape" fill="url(#linearGradient-5)"></path>
                                            <polygon id="Rectangle-path" fill="#3CA85B" points="14.7211256 0 18.0440981 0 18.0440981 10.6727704 14.7211256 10.6727704"></polygon>
                                            <path d="M29.924618,10.6773333 L27.5663794,7.06346667 C28.5709944,6.69301737 29.3607218,5.88286125 29.7191654,4.8549926 L19.4733335,4.8549926 L19.4733335,10.6727704 L22.7784406,10.6727704 L22.7784406,7.30074074 L24.368465,7.30074074 L26.1103458,10.7001482 L29.924618,10.6773333 Z" id="Shape" fill="#3CA85B"></path>
                                        </g>
                                    </g>
                                </g>
                            </g>
                        </g>
                    </g>
                    <g id="иконки" transform="translate(0.000000, 2.133333)" fill="url(#linearGradient-6)" fill-rule="nonzero">
                        <g id="Visa">
                            <g id="2-copy-3">
                                <g id="Page-1">
                                    <g id="1">
                                        <path d="M11.7516469,0.830459259 L7.70184856,10.7868444 L5.06224788,10.7868444 L3.07350764,2.98417778 C3.05007011,2.59688974 2.82700352,2.25043802 2.4859253,2.07158519 C1.7079574,1.66339252 0.881727667,1.3567351 0.0271191851,1.15899259 L0.0813575552,0.793955556 L4.32099015,0.793955556 C4.90418167,0.826700931 5.38404097,1.26917695 5.46903565,1.85256296 L6.51764414,7.44675556 L9.11204618,0.793955556 L11.7516469,0.830459259 Z M22.0569372,7.51976296 C22.0569372,4.95537778 18.5404829,4.78198519 18.567602,3.66862222 C18.567602,3.32183704 18.902072,2.94767407 19.6252503,2.85641481 C20.4689814,2.77599695 21.3185544,2.92735118 22.0840564,3.29445926 L22.5179633,1.232 C21.7719897,0.950180849 20.982207,0.804933826 20.1857134,0.803081481 C17.7269073,0.803081481 15.9912795,2.12634074 15.9732,4.01540741 C15.9732,5.41167407 17.2116428,6.1965037 18.1517745,6.66192593 C19.0919063,7.12734815 19.4444557,7.44675556 19.4444557,7.86654815 C19.4444557,8.52361481 18.667039,8.77914074 17.9529005,8.77914074 C17.0572691,8.81796262 16.1668433,8.62309263 15.3675382,8.21333333 L14.9155518,10.3488 C15.7999885,10.696816 16.7415129,10.8732936 17.6907484,10.8689778 C20.3122696,10.8689778 22.0207783,9.56397037 22.029818,7.53801481 L22.0569372,7.51976296 Z M28.5384224,10.8050963 L30.8435531,10.8050963 L28.8548129,0.830459259 L26.7304767,0.830459259 C26.2480893,0.876430304 25.8357057,1.20023143 25.6728285,1.66091852 L21.930381,10.7868444 L24.5428625,10.7868444 L25.0671667,9.12592593 L28.2672306,9.12592593 L28.5384224,10.8050963 Z M25.7813053,7.05434074 L27.0920659,3.40397037 L27.8514031,7.05434074 L25.7813053,7.05434074 Z M15.2952204,0.830459259 L13.2341623,10.7868444 L10.7391973,10.7868444 L12.8092951,0.830459259 L15.2952204,0.830459259 Z" id="Shape"></path>
                                    </g>
                                </g>
                            </g>
                        </g>
                    </g>
                    <g transform="translate(122.666667, 2.133333)">
                        <mask id="mask-8" fill="white">
                            <use xlink:href="#path-7"></use>
                        </mask>
                        <g id="Clip-2"></g>
                        <path d="M7.31485986,8.70729511 L6.15452136,7.31166424 C6.03275459,7.16514207 6.13712611,6.94336473 6.32731806,6.94336473 L8.75519835,6.94336473 C8.87083922,6.59905209 8.93591249,6.23138837 8.93591249,5.84933255 C8.93591249,4.10083468 7.63508277,2.59307245 5.84868854,2.59307245 C4.0624677,2.59307245 2.7608289,4.10083468 2.7608289,5.84933255 C2.7608289,7.59823501 4.0624677,9.08443796 5.84868854,9.08443796 C6.38973292,9.08443796 6.88541094,8.94647015 7.31485986,8.70729511 Z M12.5656834,11.0663887 C12.6920157,11.2059171 12.5883377,11.4307 12.3985503,11.4307 L9.7492128,11.4307 C9.64085366,11.4307 9.53902497,11.3830153 9.47002188,11.2997838 L9.02063488,10.7597036 C8.10625717,11.3531329 7.01758019,11.6990061 5.84868854,11.6990061 C2.6235162,11.6990061 1.15583075e-05,9.07495882 1.15583075e-05,5.84933255 C1.15583075e-05,2.62405307 2.6235162,5.77996716e-06 5.84868854,5.77996716e-06 C9.07362972,5.77996716e-06 11.696961,2.62405307 11.696961,5.84933255 C11.696961,7.01226194 11.3546617,8.09594798 10.7675575,9.007391 L12.5656834,11.0663887 Z M37.0398217,0.26929445 L34.8777825,0.26929445 C34.7186246,0.26929445 34.5902118,0.397667521 34.5902118,0.556732217 L34.5902118,11.1423375 C34.5902118,11.3010554 34.7186246,11.429833 34.8777825,11.429833 L37.0398217,11.429833 C37.198864,11.429833 37.3276235,11.3010554 37.3276235,11.1423375 L37.3276235,0.556732217 C37.3276235,0.397667521 37.198864,0.26929445 37.0398217,0.26929445 Z M33.4015554,0.26929445 L30.9828062,0.26929445 C30.8558382,0.26929445 30.7442427,0.351254384 30.7071983,0.471073103 L28.7930848,6.72655816 L26.6891261,0.464252742 C26.6498279,0.347844204 26.5401395,0.26929445 26.4162345,0.26929445 L24.7281437,0.26929445 C24.6043542,0.26929445 24.4944925,0.347844204 24.4550208,0.464252742 L22.3514089,6.72655816 L20.4371798,0.471073103 C20.4001354,0.351254384 20.2885977,0.26929445 20.1620921,0.26929445 L17.7428227,0.26929445 C17.6502985,0.26929445 17.5637845,0.31328 17.5095183,0.387610378 C17.4554832,0.462229754 17.4408619,0.557599212 17.4698733,0.644761117 L21.023186,11.2358573 C21.0626576,11.3524971 21.1723459,11.4307 21.2963666,11.4307 L23.2162014,11.4307 C23.339702,11.4307 23.4495059,11.3524971 23.4886885,11.2358573 L25.5725358,5.0482869 L27.6554584,11.2358573 C27.6945833,11.3524971 27.804445,11.4307 27.9282923,11.4307 L29.8485895,11.4307 C29.9720322,11.4307 30.0821251,11.3524971 30.1213655,11.2358573 L33.6746782,0.644761117 C33.7036896,0.557599212 33.6890105,0.462229754 33.6349176,0.387610378 C33.5807092,0.31328 33.4938485,0.26929445 33.4015554,0.26929445 Z M16.5545709,0.556732217 L16.5545709,11.1423375 C16.5545709,11.3010554 16.4254646,11.429833 16.2663645,11.429833 L14.1044987,11.429833 C13.9456297,11.429833 13.816928,11.3010554 13.816928,11.1423375 L13.816928,0.556732217 C13.816928,0.397667521 13.9456297,0.26929445 14.1044987,0.26929445 L16.2663645,0.26929445 C16.4254646,0.26929445 16.5545709,0.397667521 16.5545709,0.556732217 Z" id="Fill-1" fill="#FF8C00" mask="url(#mask-8)"></path>
                    </g>
                </g>
            </g>
        </g>
    </g>
</svg>