<svg xmlns="http://www.w3.org/2000/svg" width="20" height="20" viewBox="0 0 20 20"><g fill="none" fill-rule="evenodd"><circle cx="10" cy="10" r="10" fill="#202020"/><path fill="#FFF" d="M2.722 8.7v.805l2.128-.239v-.871L2.722 8.7m.647.887v2.787h.833V9.505l-.833.082M5.22 8.33v4.044h.833V8.21l-.833.12m.926-.13v.935l1.203-.137v-.973l-1.203.174m0 1.654v.948l.833-.044v-.974l-.833.07m0 1.631v.89h1.203v-.925l-1.203.035m4.35-3.86v4.75h1.11V7.469l-1.11.156m1.295-.21v1.072l1.573-.174V7.192l-1.573.222m0 1.904v1.113l1.018-.058V9.228l-1.018.09m0 1.993v1.063h1.573v-1.11l-1.573.047M7.719 7.976v4.398h.925V7.839l-.925.137m1.11 3.421v.977h1.389v-1.018l-1.389.041m8.166-4.26c-.345-.33-.85-.466-1.402-.385V7.96c.224-.013.405.072.486.241.127.267-.004.668-.315 1.04-.479.572-1.752 1.745-1.752 1.745l1.828-.061c1.117-1.106 1.518-1.778 1.59-2.616.038-.444-.12-.871-.435-1.173m-1.596-.315c-1.093.239-1.63 1.063-1.567 2.407l1.165-.106c-.053-.76.174-.94.403-1.039V6.821"/><path fill="#FFF" d="M13.875 11.344L17.625 11.094 17.625 12.344 13.875 12.344z"/></g></svg>